VERSION 0.7
FIELDS x y z
SIZE 4 4 4
TYPE F F F
COUNT 1 1 1
WIDTH 230
HEIGHT 1
VIEWPOINT 0 0 0 1 0 0 0
POINTS 230
DATA ascii
-3.000000 0.000000 0.000000
-2.000000 0.000000 0.000000
-1.000000 0.000000 0.000000
0.000000 0.000000 0.000000
1.000000 0.000000 0.000000
2.000000 0.000000 0.000000
3.000000 0.000000 0.000000
-3.000000 0.000000 1.000000
-2.000000 0.000000 1.000000
-1.000000 0.000000 1.000000
0.000000 0.000000 1.000000
1.000000 0.000000 1.000000
2.000000 0.000000 1.000000
3.000000 0.000000 1.000000
-3.000000 0.000000 2.000000
-2.000000 0.000000 2.000000
-1.000000 0.000000 2.000000
0.000000 0.000000 2.000000
1.000000 0.000000 2.000000
2.000000 0.000000 2.000000
3.000000 0.000000 2.000000
-3.000000 0.000000 3.000000
-2.000000 0.000000 3.000000
-1.000000 0.000000 3.000000
0.000000 0.000000 3.000000
1.000000 0.000000 3.000000
2.000000 0.000000 3.000000
3.000000 0.000000 3.000000
-3.000000 0.000000 4.000000
-2.000000 0.000000 4.000000
-1.000000 0.000000 4.000000
0.000000 0.000000 4.000000
1.000000 0.000000 4.000000
2.000000 0.000000 4.000000
3.000000 0.000000 4.000000
-3.000000 0.000000 5.000000
-2.000000 0.000000 5.000000
-1.000000 0.000000 5.000000
0.000000 0.000000 5.000000
1.000000 0.000000 5.000000
2.000000 0.000000 5.000000
3.000000 0.000000 5.000000
-3.000000 1.000000 5.000000
-2.000000 1.000000 5.000000
-1.000000 1.000000 5.000000
0.000000 1.000000 5.000000
1.000000 1.000000 5.000000
2.000000 1.000000 5.000000
3.000000 1.000000 5.000000
-3.000000 2.000000 5.000000
-2.000000 2.000000 5.000000
-1.000000 2.000000 5.000000
0.000000 2.000000 5.000000
1.000000 2.000000 5.000000
2.000000 2.000000 5.000000
3.000000 2.000000 5.000000
-3.000000 3.000000 5.000000
-2.000000 3.000000 5.000000
-1.000000 3.000000 5.000000
0.000000 3.000000 5.000000
1.000000 3.000000 5.000000
2.000000 3.000000 5.000000
3.000000 3.000000 5.000000
-3.000000 0.000000 0.000000
-3.000000 1.000000 0.000000
-3.000000 2.000000 0.000000
-3.000000 3.000000 0.000000
-3.000000 0.000000 1.000000
-3.000000 1.000000 1.000000
-3.000000 2.000000 1.000000
-3.000000 3.000000 1.000000
-3.000000 0.000000 2.000000
-3.000000 1.000000 2.000000
-3.000000 2.000000 2.000000
-3.000000 3.000000 2.000000
-3.000000 0.000000 3.000000
-3.000000 1.000000 3.000000
-3.000000 2.000000 3.000000
-3.000000 3.000000 3.000000
-3.000000 0.000000 4.000000
-3.000000 1.000000 4.000000
-3.000000 2.000000 4.000000
-3.000000 3.000000 4.000000
-3.000000 0.000000 5.000000
-3.000000 1.000000 5.000000
-3.000000 2.000000 5.000000
-3.000000 3.000000 5.000000
3.000000 0.000000 0.000000
3.000000 1.000000 0.000000
3.000000 2.000000 0.000000
3.000000 3.000000 0.000000
3.000000 0.000000 1.000000
3.000000 1.000000 1.000000
3.000000 2.000000 1.000000
3.000000 3.000000 1.000000
3.000000 0.000000 2.000000
3.000000 1.000000 2.000000
3.000000 2.000000 2.000000
3.000000 3.000000 2.000000
3.000000 0.000000 3.000000
3.000000 1.000000 3.000000
3.000000 2.000000 3.000000
3.000000 3.000000 3.000000
3.000000 0.000000 4.000000
3.000000 1.000000 4.000000
3.000000 2.000000 4.000000
3.000000 3.000000 4.000000
3.000000 0.000000 5.000000
3.000000 1.000000 5.000000
3.000000 2.000000 5.000000
3.000000 3.000000 5.000000
-0.500000 0.000000 2.500000
-0.250000 0.000000 2.500000
0.000000 0.000000 2.500000
0.250000 0.000000 2.500000
0.500000 0.000000 2.500000
-0.500000 0.250000 2.500000
-0.250000 0.250000 2.500000
0.000000 0.250000 2.500000
0.250000 0.250000 2.500000
0.500000 0.250000 2.500000
-0.500000 0.500000 2.500000
-0.250000 0.500000 2.500000
0.000000 0.500000 2.500000
0.250000 0.500000 2.500000
0.500000 0.500000 2.500000
-0.500000 0.750000 2.500000
-0.250000 0.750000 2.500000
0.000000 0.750000 2.500000
0.250000 0.750000 2.500000
0.500000 0.750000 2.500000
-0.500000 1.000000 2.500000
-0.250000 1.000000 2.500000
0.000000 1.000000 2.500000
0.250000 1.000000 2.500000
0.500000 1.000000 2.500000
-0.500000 0.000000 3.500000
-0.250000 0.000000 3.500000
0.000000 0.000000 3.500000
0.250000 0.000000 3.500000
0.500000 0.000000 3.500000
-0.500000 0.250000 3.500000
-0.250000 0.250000 3.500000
0.000000 0.250000 3.500000
0.250000 0.250000 3.500000
0.500000 0.250000 3.500000
-0.500000 0.500000 3.500000
-0.250000 0.500000 3.500000
0.000000 0.500000 3.500000
0.250000 0.500000 3.500000
0.500000 0.500000 3.500000
-0.500000 0.750000 3.500000
-0.250000 0.750000 3.500000
0.000000 0.750000 3.500000
0.250000 0.750000 3.500000
0.500000 0.750000 3.500000
-0.500000 1.000000 3.500000
-0.250000 1.000000 3.500000
0.000000 1.000000 3.500000
0.250000 1.000000 3.500000
0.500000 1.000000 3.500000
-0.500000 1.000000 2.500000
-0.250000 1.000000 2.750000
0.000000 1.000000 3.000000
0.250000 1.000000 3.250000
0.500000 1.000000 3.500000
-2.000000 0.000000 4.000000
-1.667000 0.000000 4.184000
-1.447000 0.000000 4.331000
-1.340000 0.000000 4.427000
-1.316000 0.000000 4.552000
-1.340000 0.000000 4.673000
-1.447000 0.000000 4.769000
-1.667000 0.000000 4.886000
-2.000000 0.000000 4.800000
-2.333000 0.000000 4.616000
-2.553000 0.000000 4.469000
-2.660000 0.000000 4.373000
-2.684000 0.000000 4.248000
-2.660000 0.000000 4.127000
-2.553000 0.000000 4.031000
-2.333000 0.000000 3.914000
-2.000000 0.500000 4.000000
-1.667000 0.500000 4.184000
-1.447000 0.500000 4.331000
-1.340000 0.500000 4.427000
-1.316000 0.500000 4.552000
-1.340000 0.500000 4.673000
-1.447000 0.500000 4.769000
-1.667000 0.500000 4.886000
-2.000000 0.500000 4.800000
-2.333000 0.500000 4.616000
-2.553000 0.500000 4.469000
-2.660000 0.500000 4.373000
-2.684000 0.500000 4.248000
-2.660000 0.500000 4.127000
-2.553000 0.500000 4.031000
-2.333000 0.500000 3.914000
-2.000000 1.000000 4.000000
-1.667000 1.000000 4.184000
-1.447000 1.000000 4.331000
-1.340000 1.000000 4.427000
-1.316000 1.000000 4.552000
-1.340000 1.000000 4.673000
-1.447000 1.000000 4.769000
-1.667000 1.000000 4.886000
-2.000000 1.000000 4.800000
-2.333000 1.000000 4.616000
-2.553000 1.000000 4.469000
-2.660000 1.000000 4.373000
-2.684000 1.000000 4.248000
-2.660000 1.000000 4.127000
-2.553000 1.000000 4.031000
-2.333000 1.000000 3.914000
-2.000000 1.500000 4.000000
-1.667000 1.500000 4.184000
-1.447000 1.500000 4.331000
-1.340000 1.500000 4.427000
-1.316000 1.500000 4.552000
-1.340000 1.500000 4.673000
-1.447000 1.500000 4.769000
-1.667000 1.500000 4.886000
-2.000000 1.500000 4.800000
-2.333000 1.500000 4.616000
-2.553000 1.500000 4.469000
-2.660000 1.500000 4.373000
-2.684000 1.500000 4.248000
-2.660000 1.500000 4.127000
-2.553000 1.500000 4.031000
-2.333000 1.500000 3.914000
